<svg width="32" height="32" viewBox="0 0 32 32" fill="none" xmlns="http://www.w3.org/2000/svg">
<path d="M11.6094 8.89062C11.1406 9.44271 10.6094 10.1146 10.0156 10.9062C9.42188 11.6875 8.8125 12.5417 8.1875 13.4688C7.57292 14.3854 6.96875 15.3438 6.375 16.3438C5.78125 17.3333 5.25 18.3177 4.78125 19.2969C4.3125 20.2656 3.93229 21.2031 3.64062 22.1094C3.35938 23.0052 3.21875 23.8125 3.21875 24.5312C3.21875 24.9271 3.27083 25.2969 3.375 25.6406L3.35938 25.7188C3.31771 25.7188 3.28646 25.7083 3.26562 25.6875C2.73438 25.0208 2.26562 24.3021 1.85938 23.5312C1.45312 22.75 1.10938 21.9479 0.828125 21.125C0.557292 20.2917 0.348958 19.4427 0.203125 18.5781C0.0677083 17.7135 0 16.8542 0 16C0 14.9583 0.104167 13.9167 0.3125 12.875C0.520833 11.8229 0.828125 10.8073 1.23438 9.82812C1.64062 8.83854 2.14062 7.90104 2.73438 7.01562C3.32812 6.13021 4.00521 5.32812 4.76562 4.60938C4.80729 4.56771 4.88542 4.54167 5 4.53125C5.125 4.51042 5.20312 4.5 5.23438 4.5C5.55729 4.5 5.90625 4.57812 6.28125 4.73438C6.66667 4.89062 7.0625 5.09375 7.46875 5.34375C7.875 5.59375 8.28125 5.875 8.6875 6.1875C9.09375 6.5 9.47917 6.81771 9.84375 7.14062C10.2083 7.45312 10.5417 7.75521 10.8438 8.04688C11.1458 8.33854 11.401 8.58333 11.6094 8.78125L11.625 8.84375L11.6094 8.89062ZM4.76562 4.60938H4.78125H4.76562ZM27.2188 4.60938H27.2344H27.2188ZM26.75 4.5C26.8021 4.5 26.8802 4.51042 26.9844 4.53125C27.099 4.54167 27.1823 4.56771 27.2344 4.60938C27.9948 5.32812 28.6719 6.13021 29.2656 7.01562C29.8594 7.90104 30.3594 8.83854 30.7656 9.82812C31.1719 10.8073 31.4792 11.8229 31.6875 12.875C31.8958 13.9167 32 14.9583 32 16C32 16.8542 31.9271 17.7135 31.7812 18.5781C31.6458 19.4427 31.4375 20.2917 31.1562 21.125C30.8854 21.9479 30.5469 22.75 30.1406 23.5312C29.7344 24.3021 29.2656 25.0208 28.7344 25.6875C28.7135 25.7083 28.6823 25.7188 28.6406 25.7188L28.625 25.6406C28.7292 25.2969 28.7812 24.9271 28.7812 24.5312C28.7812 23.8125 28.6354 23.0052 28.3438 22.1094C28.0625 21.2031 27.6875 20.2656 27.2188 19.2969C26.7604 18.3177 26.2292 17.3281 25.625 16.3281C25.0312 15.3281 24.4219 14.3698 23.7969 13.4531C23.1823 12.526 22.5729 11.6719 21.9688 10.8906C21.375 10.099 20.849 9.42708 20.3906 8.875L20.375 8.82812C20.3854 8.81771 20.3906 8.8125 20.3906 8.8125C20.3906 8.80208 20.3958 8.79167 20.4062 8.78125C20.6042 8.58333 20.8542 8.33854 21.1562 8.04688C21.4688 7.75521 21.8073 7.45312 22.1719 7.14062C22.5365 6.81771 22.9167 6.5 23.3125 6.1875C23.7188 5.875 24.1198 5.59375 24.5156 5.34375C24.9219 5.09375 25.3125 4.89062 25.6875 4.73438C26.0729 4.57812 26.4271 4.5 26.75 4.5ZM7.60938 2.4375L7.64062 2.35938C8.94271 1.57812 10.2812 0.989583 11.6562 0.59375C13.0312 0.197917 14.4792 0 16 0C17.5208 0 18.9635 0.197917 20.3281 0.59375C21.6927 0.979167 23.026 1.5625 24.3281 2.34375L24.3594 2.42188L24.2812 2.4375C23.9583 2.36458 23.6042 2.32812 23.2188 2.32812C22.6354 2.32812 22.026 2.40104 21.3906 2.54688C20.7656 2.68229 20.1406 2.86458 19.5156 3.09375C18.8906 3.32292 18.2812 3.58333 17.6875 3.875C17.0938 4.15625 16.5417 4.4375 16.0312 4.71875L16 4.73438L15.9688 4.71875C15.4688 4.4375 14.9219 4.15625 14.3281 3.875C13.7344 3.59375 13.125 3.33854 12.5 3.10938C11.875 2.88021 11.2448 2.69271 10.6094 2.54688C9.98438 2.40104 9.38542 2.32812 8.8125 2.32812C8.625 2.32812 8.4375 2.33854 8.25 2.35938C8.0625 2.36979 7.875 2.40104 7.6875 2.45312L7.60938 2.4375ZM5.46875 28.0469V28.0312V28.0469ZM16.0469 12.8594C16.4323 13.151 16.8802 13.5208 17.3906 13.9688C17.9115 14.4062 18.4635 14.901 19.0469 15.4531C19.6302 16.0052 20.2292 16.599 20.8438 17.2344C21.4688 17.8698 22.0729 18.526 22.6562 19.2031C23.25 19.8802 23.8073 20.5625 24.3281 21.25C24.8594 21.9375 25.3229 22.6094 25.7188 23.2656C26.1146 23.9115 26.4271 24.5365 26.6562 25.1406C26.8854 25.7344 27 26.2812 27 26.7812C27 27.0208 26.9635 27.25 26.8906 27.4688C26.8177 27.6771 26.6979 27.8698 26.5312 28.0469C26.3125 28.2656 26.0625 28.4792 25.7812 28.6875C25.5 28.8958 25.2292 29.0885 24.9688 29.2656C23.6354 30.1615 22.2083 30.8438 20.6875 31.3125C19.1667 31.7708 17.6042 32 16 32C14.3958 32 12.8333 31.7708 11.3125 31.3125C9.79167 30.8438 8.36458 30.1615 7.03125 29.2656C6.77083 29.0885 6.5 28.8958 6.21875 28.6875C5.9375 28.4792 5.6875 28.2656 5.46875 28.0469C5.30208 27.8698 5.18229 27.6771 5.10938 27.4688C5.03646 27.25 5 27.0208 5 26.7812C5 26.2812 5.11458 25.7344 5.34375 25.1406C5.57292 24.5365 5.88542 23.9115 6.28125 23.2656C6.67708 22.6094 7.13542 21.9375 7.65625 21.25C8.1875 20.5625 8.74479 19.8802 9.32812 19.2031C9.92188 18.526 10.526 17.8698 11.1406 17.2344C11.7656 16.599 12.3698 16.0052 12.9531 15.4531C13.5365 14.901 14.0833 14.4062 14.5938 13.9688C15.1146 13.5208 15.5677 13.151 15.9531 12.8594L16 12.8281L16.0469 12.8594Z" fill="#107C0F"/>
</svg>
